<svg xmlns="http://www.w3.org/2000/svg" xmlns:xlink="http://www.w3.org/1999/xlink" width="500" zoomAndPan="magnify" viewBox="0 0 375 374.999991" height="500" preserveAspectRatio="xMidYMid meet" version="1.0"><defs><g/><clipPath id="429be6dda9"><path d="M 160 134 L 169.507812 134 L 169.507812 144 L 160 144 Z M 160 134 " clip-rule="nonzero"/></clipPath><clipPath id="b7a901994c"><path d="M 154 126.398438 L 159 126.398438 L 159 131 L 154 131 Z M 154 126.398438 " clip-rule="nonzero"/></clipPath><clipPath id="9d7de3baeb"><path d="M 78.757812 230 L 89 230 L 89 241 L 78.757812 241 Z M 78.757812 230 " clip-rule="nonzero"/></clipPath><clipPath id="a703b9a51f"><path d="M 90 244 L 95 244 L 95 248.648438 L 90 248.648438 Z M 90 244 " clip-rule="nonzero"/></clipPath></defs><path fill="#a6a6a6" d="M 142.992188 150.441406 L 139.449219 150.441406 L 139.449219 147.238281 C 138.195312 146.585938 136.765625 146.214844 135.257812 146.214844 C 130.191406 146.214844 126.058594 150.359375 126.058594 155.414062 L 126.058594 219.574219 C 126.058594 224.628906 130.191406 228.773438 135.257812 228.773438 C 140.097656 228.773438 144.097656 224.988281 144.433594 220.226562 C 145.527344 220.597656 146.6875 220.808594 147.90625 220.808594 C 153.761719 220.808594 158.5 216.066406 158.5 210.214844 C 158.5 209.144531 158.347656 208.125 158.058594 207.144531 C 163.738281 205.066406 167.792969 199.59375 167.792969 193.195312 C 167.792969 189.5 166.445312 186.121094 164.226562 183.519531 C 165.34375 181.777344 165.980469 179.699219 165.980469 177.46875 C 165.980469 172.382812 162.613281 168.082031 157.988281 166.664062 L 149.265625 166.664062 L 149.265625 155.492188 L 152.785156 155.492188 C 149.113281 150.234375 144.515625 150.5 142.992188 150.441406 Z M 142.367188 171.59375 L 136.289062 171.59375 L 136.289062 177.679688 L 142.367188 177.679688 Z M 154.191406 170.539062 L 148.113281 170.539062 L 148.113281 176.613281 L 154.191406 176.613281 Z M 144.792969 164.335938 L 140.925781 164.335938 L 140.925781 168.191406 L 144.792969 168.191406 Z M 138.960938 159.152344 L 135.09375 159.152344 L 135.09375 163.007812 L 138.960938 163.007812 Z M 146.835938 152.417969 L 142.980469 152.417969 L 142.980469 156.285156 L 146.835938 156.285156 Z M 146.835938 152.417969 " fill-opacity="1" fill-rule="evenodd"/><g clip-path="url(#429be6dda9)"><path fill="#a6a6a6" d="M 169.882812 134.632812 L 160.519531 134.632812 L 160.519531 143.996094 L 169.882812 143.996094 Z M 169.882812 134.632812 " fill-opacity="1" fill-rule="evenodd"/></g><path fill="#a6a6a6" d="M 156.828125 142.113281 L 150.914062 142.113281 L 150.914062 148.027344 L 156.828125 148.027344 Z M 156.828125 142.113281 " fill-opacity="1" fill-rule="evenodd"/><path fill="#a6a6a6" d="M 168 156.566406 L 162.078125 156.566406 L 162.078125 162.488281 L 168 162.488281 Z M 168 156.566406 " fill-opacity="1" fill-rule="evenodd"/><g clip-path="url(#b7a901994c)"><path fill="#a6a6a6" d="M 158.476562 126.445312 L 154.28125 126.445312 L 154.28125 130.636719 L 158.476562 130.636719 Z M 158.476562 126.445312 " fill-opacity="1" fill-rule="evenodd"/></g><path fill="#a6a6a6" d="M 149.890625 131.847656 L 145.039062 131.847656 L 145.039062 136.691406 L 149.890625 136.691406 Z M 149.890625 131.847656 " fill-opacity="1" fill-rule="evenodd"/><path fill="#a6a6a6" d="M 164.5625 148.003906 L 160.367188 148.003906 L 160.367188 152.183594 L 164.5625 152.183594 Z M 164.5625 148.003906 " fill-opacity="1" fill-rule="evenodd"/><path fill="#a6a6a6" d="M 144.933594 143.484375 L 141.75 143.484375 L 141.75 146.667969 L 144.933594 146.667969 Z M 144.933594 143.484375 " fill-opacity="1" fill-rule="evenodd"/><path fill="#a6a6a6" d="M 158.835938 157.273438 L 150.867188 157.273438 L 150.867188 165.242188 L 158.835938 165.242188 Z M 158.835938 157.273438 " fill-opacity="1" fill-rule="evenodd"/><path fill="#d1212e" d="M 105.625 224.546875 L 109.167969 224.546875 L 109.167969 227.753906 C 110.425781 228.402344 111.851562 228.777344 113.363281 228.777344 C 118.414062 228.777344 122.5625 224.632812 122.5625 219.578125 L 122.5625 155.414062 C 122.5625 150.363281 118.414062 146.214844 113.363281 146.214844 C 108.519531 146.214844 104.523438 150.011719 104.183594 154.765625 C 103.09375 154.394531 101.917969 154.183594 100.710938 154.183594 C 94.859375 154.183594 90.105469 158.933594 90.105469 164.777344 C 90.105469 165.847656 90.269531 166.867188 90.5625 167.84375 C 84.878906 169.921875 80.816406 175.394531 80.816406 181.796875 C 80.816406 185.492188 82.164062 188.871094 84.390625 191.472656 C 83.277344 193.210938 82.640625 195.292969 82.640625 197.523438 C 82.640625 202.609375 85.996094 206.90625 90.628906 208.324219 L 99.351562 208.324219 L 99.351562 219.5 L 95.832031 219.5 C 99.507812 224.757812 104.09375 224.488281 105.625 224.546875 Z M 106.253906 203.398438 L 112.328125 203.398438 L 112.328125 197.3125 L 106.253906 197.3125 Z M 94.417969 204.453125 L 100.503906 204.453125 L 100.503906 198.378906 L 94.417969 198.378906 Z M 103.824219 210.65625 L 107.683594 210.65625 L 107.683594 206.800781 L 103.824219 206.800781 Z M 109.65625 215.835938 L 113.527344 215.835938 L 113.527344 211.980469 L 109.65625 211.980469 Z M 101.769531 222.574219 L 105.636719 222.574219 L 105.636719 218.707031 L 101.769531 218.707031 Z M 101.769531 222.574219 " fill-opacity="1" fill-rule="evenodd"/><g clip-path="url(#9d7de3baeb)"><path fill="#d1212e" d="M 88.097656 230.996094 L 78.722656 230.996094 L 78.722656 240.359375 L 88.097656 240.359375 Z M 88.097656 230.996094 " fill-opacity="1" fill-rule="evenodd"/></g><path fill="#d1212e" d="M 97.703125 226.964844 L 91.792969 226.964844 L 91.792969 232.878906 L 97.703125 232.878906 Z M 97.703125 226.964844 " fill-opacity="1" fill-rule="evenodd"/><path fill="#d1212e" d="M 86.53125 212.515625 L 80.621094 212.515625 L 80.621094 218.425781 L 86.53125 218.425781 Z M 86.53125 212.515625 " fill-opacity="1" fill-rule="evenodd"/><g clip-path="url(#a703b9a51f)"><path fill="#d1212e" d="M 94.324219 244.351562 L 90.132812 244.351562 L 90.132812 248.546875 L 94.324219 248.546875 Z M 94.324219 244.351562 " fill-opacity="1" fill-rule="evenodd"/></g><path fill="#d1212e" d="M 103.582031 238.300781 L 98.726562 238.300781 L 98.726562 243.144531 L 103.582031 243.144531 Z M 103.582031 238.300781 " fill-opacity="1" fill-rule="evenodd"/><path fill="#d1212e" d="M 88.238281 222.808594 L 84.054688 222.808594 L 84.054688 226.988281 L 88.238281 226.988281 Z M 88.238281 222.808594 " fill-opacity="1" fill-rule="evenodd"/><path fill="#d1212e" d="M 106.867188 228.324219 L 103.6875 228.324219 L 103.6875 231.503906 L 106.867188 231.503906 Z M 106.867188 228.324219 " fill-opacity="1" fill-rule="evenodd"/><path fill="#d1212e" d="M 97.742188 209.75 L 89.78125 209.75 L 89.78125 217.71875 L 97.742188 217.71875 Z M 97.742188 209.75 " fill-opacity="1" fill-rule="evenodd"/><g fill="#d1212e" fill-opacity="1"><g transform="translate(173.291756, 205.308369)"><g><path d="M 15.6875 -18.707031 L 7.421875 -18.707031 C 6.425781 -18.707031 5.5625 -18.570312 4.859375 -18.320312 C 4.132812 -18.046875 3.542969 -17.617188 3.109375 -17.046875 C 2.65625 -16.480469 2.316406 -15.730469 2.109375 -14.824219 C 1.90625 -13.9375 1.816406 -12.847656 1.816406 -11.601562 L 1.816406 -7.105469 C 1.816406 -5.835938 1.90625 -4.746094 2.109375 -3.835938 C 2.316406 -2.949219 2.65625 -2.203125 3.109375 -1.613281 C 3.5625 -1.042969 4.152344 -0.613281 4.859375 -0.363281 C 5.5625 -0.113281 6.425781 0.0234375 7.421875 0.0234375 L 15.6875 0.0234375 C 15.867188 0.0234375 16.320312 -0.0664062 16.320312 -0.773438 L 16.320312 -2.566406 C 16.320312 -3.269531 15.867188 -3.359375 15.6875 -3.359375 L 7.535156 -3.359375 C 7.058594 -3.359375 6.652344 -3.40625 6.355469 -3.519531 C 6.0625 -3.609375 5.855469 -3.769531 5.675781 -4.019531 C 5.492188 -4.246094 5.378906 -4.585938 5.289062 -5.015625 C 5.222656 -5.472656 5.175781 -6.039062 5.175781 -6.71875 L 5.175781 -12.007812 C 5.175781 -12.691406 5.222656 -13.257812 5.289062 -13.6875 C 5.378906 -14.121094 5.492188 -14.4375 5.675781 -14.6875 C 5.855469 -14.9375 6.0625 -15.097656 6.355469 -15.1875 C 6.652344 -15.300781 7.058594 -15.347656 7.535156 -15.347656 L 15.6875 -15.347656 C 15.867188 -15.347656 16.320312 -15.4375 16.320312 -16.164062 L 16.320312 -17.910156 C 16.320312 -18.613281 15.867188 -18.707031 15.6875 -18.707031 Z M 15.6875 -18.707031 "/></g></g></g><g fill="#d1212e" fill-opacity="1"><g transform="translate(192.990286, 205.308369)"><g><path d="M 17.273438 -17.046875 C 16.820312 -17.617188 16.230469 -18.046875 15.503906 -18.320312 C 14.800781 -18.570312 13.9375 -18.707031 12.9375 -18.707031 L 7.402344 -18.707031 C 6.402344 -18.707031 5.5625 -18.570312 4.859375 -18.320312 C 4.132812 -18.046875 3.542969 -17.617188 3.085938 -17.046875 C 2.65625 -16.480469 2.316406 -15.730469 2.109375 -14.824219 C 1.90625 -13.9375 1.816406 -12.871094 1.816406 -11.601562 L 1.816406 -7.105469 C 1.816406 -5.835938 1.90625 -4.746094 2.109375 -3.859375 C 2.316406 -2.949219 2.65625 -2.203125 3.085938 -1.632812 C 3.542969 -1.042969 4.132812 -0.613281 4.859375 -0.363281 C 5.539062 -0.113281 6.402344 0.0234375 7.402344 0.0234375 L 12.9375 0.0234375 C 13.9375 0.0234375 14.800781 -0.113281 15.503906 -0.363281 C 16.230469 -0.613281 16.820312 -1.042969 17.273438 -1.613281 C 17.730469 -2.203125 18.046875 -2.949219 18.25 -3.859375 C 18.433594 -4.746094 18.546875 -5.835938 18.546875 -7.105469 L 18.546875 -11.601562 C 18.546875 -12.847656 18.433594 -13.9375 18.25 -14.824219 C 18.046875 -15.730469 17.730469 -16.480469 17.273438 -17.046875 Z M 15.164062 -11.984375 L 15.164062 -6.695312 C 15.164062 -6.039062 15.140625 -5.472656 15.050781 -5.015625 C 14.984375 -4.609375 14.847656 -4.246094 14.664062 -4.019531 C 14.503906 -3.769531 14.277344 -3.609375 13.984375 -3.519531 C 13.6875 -3.40625 13.300781 -3.359375 12.824219 -3.359375 L 7.515625 -3.359375 C 7.039062 -3.359375 6.652344 -3.40625 6.355469 -3.519531 C 6.0625 -3.609375 5.835938 -3.769531 5.675781 -4.019531 C 5.492188 -4.246094 5.378906 -4.609375 5.289062 -5.015625 C 5.222656 -5.472656 5.175781 -6.039062 5.175781 -6.695312 L 5.175781 -11.984375 C 5.175781 -12.644531 5.222656 -13.210938 5.289062 -13.664062 C 5.378906 -14.097656 5.492188 -14.4375 5.675781 -14.6875 C 5.835938 -14.914062 6.0625 -15.074219 6.355469 -15.1875 C 6.652344 -15.277344 7.039062 -15.347656 7.515625 -15.347656 L 12.824219 -15.347656 C 13.300781 -15.347656 13.6875 -15.277344 13.984375 -15.1875 C 14.277344 -15.074219 14.503906 -14.914062 14.664062 -14.6875 C 14.847656 -14.4375 14.984375 -14.097656 15.050781 -13.664062 C 15.140625 -13.210938 15.164062 -12.644531 15.164062 -11.984375 Z M 15.164062 -11.984375 "/></g></g></g><g fill="#d1212e" fill-opacity="1"><g transform="translate(214.91282, 205.308369)"><g><path d="M 17.296875 -13.28125 C 17.296875 -13.257812 17.296875 -13.234375 17.296875 -13.210938 C 17.296875 -13.1875 17.296875 -13.167969 17.296875 -13.144531 Z M 17.730469 -0.976562 L 13.757812 -7.785156 C 14.867188 -7.921875 15.730469 -8.398438 16.300781 -9.171875 C 16.933594 -10.101562 17.273438 -11.441406 17.296875 -13.210938 C 17.273438 -14.984375 16.933594 -16.320312 16.300781 -17.253906 C 15.617188 -18.230469 14.484375 -18.707031 12.9375 -18.707031 L 2.472656 -18.707031 C 2.269531 -18.707031 1.816406 -18.636719 1.816406 -17.910156 L 1.816406 -16.117188 C 1.816406 -15.414062 2.269531 -15.347656 2.472656 -15.347656 L 12.347656 -15.347656 C 12.9375 -15.347656 13.324219 -15.1875 13.550781 -14.847656 C 13.800781 -14.503906 13.914062 -13.960938 13.914062 -13.210938 C 13.914062 -12.460938 13.800781 -11.917969 13.550781 -11.578125 C 13.324219 -11.238281 12.9375 -11.078125 12.347656 -11.078125 L 2.472656 -11.078125 C 2.269531 -11.078125 1.816406 -11.011719 1.816406 -10.304688 L 1.816406 -0.773438 C 1.816406 -0.0664062 2.269531 0.0234375 2.472656 0.0234375 L 4.539062 0.0234375 C 4.746094 0.0234375 5.175781 -0.0664062 5.175781 -0.773438 L 5.175781 -7.71875 L 9.964844 -7.71875 L 14.074219 -0.429688 C 14.164062 -0.296875 14.234375 -0.179688 14.324219 -0.113281 C 14.4375 -0.0234375 14.597656 0.0234375 14.800781 0.0234375 L 17.296875 0.0234375 C 17.570312 0.0234375 17.773438 -0.160156 17.820312 -0.429688 C 17.84375 -0.660156 17.820312 -0.839844 17.730469 -0.976562 Z M 17.730469 -0.976562 "/></g></g></g><g fill="#a6a6a6" fill-opacity="1"><g transform="translate(236.144148, 205.308369)"><g><path d="M 17.503906 -18.707031 L 2.472656 -18.707031 C 2.269531 -18.707031 1.816406 -18.636719 1.816406 -17.933594 L 1.816406 -16.164062 C 1.816406 -15.414062 2.269531 -15.347656 2.472656 -15.347656 L 8.308594 -15.347656 L 8.308594 -0.773438 C 8.308594 -0.0664062 8.761719 0 8.945312 0 L 11.03125 0 C 11.238281 0 11.667969 -0.0664062 11.667969 -0.773438 L 11.667969 -15.347656 L 17.503906 -15.347656 C 17.707031 -15.347656 18.160156 -15.414062 18.160156 -16.164062 L 18.160156 -17.933594 C 18.160156 -18.636719 17.707031 -18.707031 17.503906 -18.707031 Z M 17.503906 -18.707031 "/></g></g></g><g fill="#a6a6a6" fill-opacity="1"><g transform="translate(257.680891, 205.308369)"><g><path d="M 15.460938 -4.0625 L 7.46875 -4.0625 C 6.992188 -4.0625 6.605469 -4.132812 6.289062 -4.222656 C 5.992188 -4.335938 5.789062 -4.496094 5.605469 -4.722656 C 5.425781 -4.972656 5.289062 -5.3125 5.222656 -5.742188 C 5.199219 -5.855469 5.199219 -6.015625 5.175781 -6.128906 C 5.175781 -6.128906 5.199219 -7.761719 5.222656 -7.761719 L 15.367188 -7.761719 C 15.550781 -7.761719 16.003906 -7.855469 16.003906 -8.558594 L 16.003906 -10.351562 C 16.003906 -11.054688 15.550781 -11.125 15.367188 -11.125 L 3.65625 -11.101562 C 2.996094 -11.054688 2.429688 -10.714844 2.109375 -10.148438 C 1.996094 -9.964844 1.90625 -9.785156 1.863281 -9.578125 L 1.816406 -6.71875 L 1.816406 -6.605469 C 1.839844 -5.539062 1.953125 -4.632812 2.109375 -3.882812 C 2.316406 -2.972656 2.65625 -2.226562 3.085938 -1.65625 C 3.542969 -1.066406 4.132812 -0.660156 4.859375 -0.410156 C 5.5625 -0.136719 6.402344 -0.0234375 7.402344 -0.0234375 L 15.460938 -0.0234375 C 15.664062 -0.0234375 16.117188 -0.0898438 16.117188 -0.792969 L 16.117188 -3.292969 C 16.117188 -3.996094 15.664062 -4.0625 15.460938 -4.0625 Z M 15.480469 -18.75 L 2.429688 -18.75 C 2.246094 -18.75 1.816406 -18.660156 1.816406 -17.933594 L 1.816406 -16.164062 C 1.816406 -15.460938 2.246094 -15.390625 2.429688 -15.390625 L 15.480469 -15.367188 C 15.664062 -15.367188 16.117188 -15.460938 16.117188 -16.164062 L 16.117188 -17.957031 C 16.117188 -18.660156 15.664062 -18.75 15.480469 -18.75 Z M 15.480469 -18.75 "/></g></g></g><g fill="#a6a6a6" fill-opacity="1"><g transform="translate(277.175182, 205.308369)"><g><path d="M 12.53125 -9.691406 L 18.34375 -17.707031 C 18.476562 -17.867188 18.523438 -18.070312 18.5 -18.273438 C 18.457031 -18.546875 18.273438 -18.707031 17.980469 -18.707031 L 15.480469 -18.707031 C 15.277344 -18.707031 15.117188 -18.660156 15.003906 -18.59375 C 14.890625 -18.5 14.777344 -18.386719 14.6875 -18.25 L 10.417969 -12.441406 L 6.402344 -18.25 C 6.3125 -18.386719 6.199219 -18.5 6.082031 -18.59375 C 5.96875 -18.660156 5.789062 -18.707031 5.605469 -18.707031 L 2.972656 -18.707031 C 2.679688 -18.707031 2.496094 -18.546875 2.472656 -18.273438 C 2.453125 -18.070312 2.496094 -17.867188 2.609375 -17.707031 L 8.242188 -9.828125 L 1.996094 -1 C 1.863281 -0.839844 1.816406 -0.660156 1.839844 -0.429688 C 1.882812 -0.160156 2.066406 0 2.339844 0 L 4.835938 0 C 5.039062 0 5.199219 -0.0234375 5.3125 -0.113281 C 5.425781 -0.179688 5.539062 -0.296875 5.628906 -0.453125 L 10.238281 -6.96875 L 14.824219 -0.476562 C 14.914062 -0.296875 15.027344 -0.179688 15.140625 -0.0898438 C 15.277344 -0.0234375 15.4375 0 15.617188 0 L 18.25 0 C 18.546875 0 18.726562 -0.160156 18.75 -0.429688 C 18.796875 -0.660156 18.726562 -0.839844 18.613281 -1 Z M 12.53125 -9.691406 "/></g></g></g><g fill="#a6a6a6" fill-opacity="1"><g transform="translate(299.324646, 205.308369)"><g><path d="M 17.503906 -18.707031 L 2.472656 -18.707031 C 2.269531 -18.707031 1.816406 -18.636719 1.816406 -17.933594 L 1.816406 -16.164062 C 1.816406 -15.414062 2.269531 -15.347656 2.472656 -15.347656 L 8.308594 -15.347656 L 8.308594 -0.773438 C 8.308594 -0.0664062 8.761719 0 8.945312 0 L 11.03125 0 C 11.238281 0 11.667969 -0.0664062 11.667969 -0.773438 L 11.667969 -15.347656 L 17.503906 -15.347656 C 17.707031 -15.347656 18.160156 -15.414062 18.160156 -16.164062 L 18.160156 -17.933594 C 18.160156 -18.636719 17.707031 -18.707031 17.503906 -18.707031 Z M 17.503906 -18.707031 "/></g></g></g><g fill="#a6a6a6" fill-opacity="1"><g transform="translate(176.44183, 178.615739)"><g><path d="M 13.984375 -16.59375 C 13.9375 -16.707031 13.894531 -16.84375 13.847656 -16.933594 C 13.484375 -18.113281 12.394531 -18.957031 11.144531 -18.957031 C 10.578125 -18.957031 10.035156 -18.796875 9.578125 -18.476562 C 9.445312 -18.410156 9.328125 -18.320312 9.238281 -18.25 C 8.898438 -17.957031 8.558594 -17.410156 8.242188 -16.59375 L 1.90625 -0.863281 C 1.839844 -0.660156 1.816406 -0.453125 1.863281 -0.316406 C 1.882812 -0.179688 1.996094 0.0234375 2.359375 0.0234375 L 4.859375 0.0234375 C 5.152344 0.0234375 5.378906 -0.160156 5.492188 -0.453125 L 6.789062 -3.699219 L 11.757812 -3.699219 C 12.007812 -3.699219 12.234375 -3.8125 12.347656 -4.019531 C 12.484375 -4.199219 12.507812 -4.449219 12.441406 -4.675781 L 11.621094 -6.695312 C 11.507812 -6.96875 11.257812 -7.152344 10.964844 -7.152344 L 8.148438 -7.152344 L 11.054688 -14.503906 C 11.078125 -14.550781 11.101562 -14.574219 11.101562 -14.574219 L 11.191406 -14.574219 C 11.191406 -14.574219 11.191406 -14.574219 11.214844 -14.527344 L 16.84375 -0.476562 C 16.957031 -0.160156 17.183594 0.0234375 17.503906 0.0234375 L 19.929688 0.0234375 C 20.292969 0.0234375 20.386719 -0.203125 20.429688 -0.316406 C 20.476562 -0.453125 20.453125 -0.660156 20.363281 -0.863281 Z M 13.984375 -16.59375 "/></g></g></g><g fill="#a6a6a6" fill-opacity="1"><g transform="translate(200.293335, 178.615739)"><g><path d="M 17.503906 -18.707031 L 15.414062 -18.707031 C 15.210938 -18.707031 14.777344 -18.636719 14.777344 -17.933594 L 14.777344 -6.742188 C 14.777344 -6.0625 14.734375 -5.472656 14.664062 -5.039062 C 14.597656 -4.609375 14.460938 -4.269531 14.300781 -4.019531 C 14.121094 -3.792969 13.914062 -3.632812 13.621094 -3.519531 C 13.324219 -3.429688 12.917969 -3.359375 12.441406 -3.359375 L 7.535156 -3.359375 C 7.058594 -3.359375 6.652344 -3.429688 6.355469 -3.519531 C 6.0625 -3.632812 5.855469 -3.792969 5.675781 -4.019531 C 5.515625 -4.269531 5.378906 -4.609375 5.289062 -5.039062 C 5.222656 -5.472656 5.175781 -6.0625 5.175781 -6.742188 L 5.175781 -17.933594 C 5.175781 -18.636719 4.746094 -18.707031 4.539062 -18.707031 L 2.472656 -18.707031 C 2.269531 -18.707031 1.816406 -18.636719 1.816406 -17.933594 L 1.816406 -7.105469 C 1.816406 -5.835938 1.90625 -4.746094 2.109375 -3.859375 C 2.316406 -2.949219 2.65625 -2.203125 3.109375 -1.632812 C 3.542969 -1.042969 4.152344 -0.636719 4.859375 -0.363281 C 5.5625 -0.113281 6.425781 0 7.421875 0 L 12.53125 0 C 13.53125 0 14.390625 -0.113281 15.097656 -0.363281 C 15.824219 -0.636719 16.414062 -1.042969 16.867188 -1.632812 C 17.320312 -2.203125 17.636719 -2.949219 17.84375 -3.859375 C 18.046875 -4.746094 18.136719 -5.835938 18.136719 -7.105469 L 18.136719 -17.933594 C 18.136719 -18.636719 17.707031 -18.707031 17.503906 -18.707031 Z M 17.503906 -18.707031 "/></g></g></g><g fill="#a6a6a6" fill-opacity="1"><g transform="translate(221.807371, 178.615739)"><g><path d="M 17.503906 -18.707031 L 2.472656 -18.707031 C 2.269531 -18.707031 1.816406 -18.636719 1.816406 -17.933594 L 1.816406 -16.164062 C 1.816406 -15.414062 2.269531 -15.347656 2.472656 -15.347656 L 8.308594 -15.347656 L 8.308594 -0.773438 C 8.308594 -0.0664062 8.761719 0 8.945312 0 L 11.03125 0 C 11.238281 0 11.667969 -0.0664062 11.667969 -0.773438 L 11.667969 -15.347656 L 17.503906 -15.347656 C 17.707031 -15.347656 18.160156 -15.414062 18.160156 -16.164062 L 18.160156 -17.933594 C 18.160156 -18.636719 17.707031 -18.707031 17.503906 -18.707031 Z M 17.503906 -18.707031 "/></g></g></g><g fill="#a6a6a6" fill-opacity="1"><g transform="translate(243.344115, 178.615739)"><g><path d="M 17.273438 -17.046875 C 16.820312 -17.617188 16.230469 -18.046875 15.503906 -18.320312 C 14.800781 -18.570312 13.9375 -18.707031 12.9375 -18.707031 L 7.402344 -18.707031 C 6.402344 -18.707031 5.5625 -18.570312 4.859375 -18.320312 C 4.132812 -18.046875 3.542969 -17.617188 3.085938 -17.046875 C 2.65625 -16.480469 2.316406 -15.730469 2.109375 -14.824219 C 1.90625 -13.9375 1.816406 -12.871094 1.816406 -11.601562 L 1.816406 -7.105469 C 1.816406 -5.835938 1.90625 -4.746094 2.109375 -3.859375 C 2.316406 -2.949219 2.65625 -2.203125 3.085938 -1.632812 C 3.542969 -1.042969 4.132812 -0.613281 4.859375 -0.363281 C 5.539062 -0.113281 6.402344 0.0234375 7.402344 0.0234375 L 12.9375 0.0234375 C 13.9375 0.0234375 14.800781 -0.113281 15.503906 -0.363281 C 16.230469 -0.613281 16.820312 -1.042969 17.273438 -1.613281 C 17.730469 -2.203125 18.046875 -2.949219 18.25 -3.859375 C 18.433594 -4.746094 18.546875 -5.835938 18.546875 -7.105469 L 18.546875 -11.601562 C 18.546875 -12.847656 18.433594 -13.9375 18.25 -14.824219 C 18.046875 -15.730469 17.730469 -16.480469 17.273438 -17.046875 Z M 15.164062 -11.984375 L 15.164062 -6.695312 C 15.164062 -6.039062 15.140625 -5.472656 15.050781 -5.015625 C 14.984375 -4.609375 14.847656 -4.246094 14.664062 -4.019531 C 14.503906 -3.769531 14.277344 -3.609375 13.984375 -3.519531 C 13.6875 -3.40625 13.300781 -3.359375 12.824219 -3.359375 L 7.515625 -3.359375 C 7.039062 -3.359375 6.652344 -3.40625 6.355469 -3.519531 C 6.0625 -3.609375 5.835938 -3.769531 5.675781 -4.019531 C 5.492188 -4.246094 5.378906 -4.609375 5.289062 -5.015625 C 5.222656 -5.472656 5.175781 -6.039062 5.175781 -6.695312 L 5.175781 -11.984375 C 5.175781 -12.644531 5.222656 -13.210938 5.289062 -13.664062 C 5.378906 -14.097656 5.492188 -14.4375 5.675781 -14.6875 C 5.835938 -14.914062 6.0625 -15.074219 6.355469 -15.1875 C 6.652344 -15.277344 7.039062 -15.347656 7.515625 -15.347656 L 12.824219 -15.347656 C 13.300781 -15.347656 13.6875 -15.277344 13.984375 -15.1875 C 14.277344 -15.074219 14.503906 -14.914062 14.664062 -14.6875 C 14.847656 -14.4375 14.984375 -14.097656 15.050781 -13.664062 C 15.140625 -13.210938 15.164062 -12.644531 15.164062 -11.984375 Z M 15.164062 -11.984375 "/></g></g></g></svg>