<svg xmlns="http://www.w3.org/2000/svg" xmlns:xlink="http://www.w3.org/1999/xlink" width="500" zoomAndPan="magnify" viewBox="0 0 375 374.999991" height="500" preserveAspectRatio="xMidYMid meet" version="1.0"><defs><g/><clipPath id="c328f2f472"><path d="M 142 151 L 149.179688 151 L 149.179688 159 L 142 159 Z M 142 151 " clipRule="nonzero"/></clipPath><clipPath id="a9fffd2b23"><path d="M 138 146.421875 L 142 146.421875 L 142 150 L 138 150 Z M 138 146.421875 " clipRule="nonzero"/></clipPath><clipPath id="a8a47ae7fa"><path d="M 87.914062 216 L 95 216 L 95 224 L 87.914062 224 Z M 87.914062 216 " clipRule="nonzero"/></clipPath><clipPath id="0335560d98"><path d="M 95 225 L 99 225 L 99 228.921875 L 95 228.921875 Z M 95 225 " clipRule="nonzero"/></clipPath></defs><path fill="#a6a6a6" d="M 131.101562 162.582031 L 128.71875 162.582031 L 128.71875 160.425781 C 127.875 159.992188 126.914062 159.738281 125.898438 159.738281 C 122.492188 159.738281 119.714844 162.527344 119.714844 165.925781 L 119.714844 209.0625 C 119.714844 212.460938 122.492188 215.246094 125.898438 215.246094 C 129.15625 215.246094 131.84375 212.703125 132.070312 209.5 C 132.800781 209.75 133.585938 209.890625 134.402344 209.890625 C 138.339844 209.890625 141.527344 206.703125 141.527344 202.769531 C 141.527344 202.050781 141.425781 201.363281 141.226562 200.707031 C 145.046875 199.308594 147.773438 195.628906 147.773438 191.328125 C 147.773438 188.84375 146.867188 186.570312 145.375 184.820312 C 146.125 183.652344 146.554688 182.253906 146.554688 180.753906 C 146.554688 177.332031 144.289062 174.445312 141.183594 173.488281 L 135.316406 173.488281 L 135.316406 165.976562 L 137.683594 165.976562 C 135.214844 162.441406 132.121094 162.621094 131.101562 162.582031 Z M 130.679688 176.804688 L 126.59375 176.804688 L 126.59375 180.894531 L 130.679688 180.894531 Z M 138.628906 176.09375 L 134.542969 176.09375 L 134.542969 180.179688 L 138.628906 180.179688 Z M 132.308594 171.921875 L 129.710938 171.921875 L 129.710938 174.515625 L 132.308594 174.515625 Z M 128.390625 168.441406 L 125.789062 168.441406 L 125.789062 171.03125 L 128.390625 171.03125 Z M 133.683594 163.910156 L 131.09375 163.910156 L 131.09375 166.511719 L 133.683594 166.511719 Z M 133.683594 163.910156 " fillOpacity="1" fillRule="evenodd"/><g clipPath="url(#c328f2f472)"><path fill="#a6a6a6" d="M 149.179688 151.953125 L 142.882812 151.953125 L 142.882812 158.25 L 149.179688 158.25 Z M 149.179688 151.953125 " fillOpacity="1" fillRule="evenodd"/></g><path fill="#a6a6a6" d="M 140.402344 156.984375 L 136.425781 156.984375 L 136.425781 160.960938 L 140.402344 160.960938 Z M 140.402344 156.984375 " fillOpacity="1" fillRule="evenodd"/><path fill="#a6a6a6" d="M 147.914062 166.699219 L 143.929688 166.699219 L 143.929688 170.679688 L 147.914062 170.679688 Z M 147.914062 166.699219 " fillOpacity="1" fillRule="evenodd"/><g clipPath="url(#a9fffd2b23)"><path fill="#a6a6a6" d="M 141.507812 146.449219 L 138.691406 146.449219 L 138.691406 149.269531 L 141.507812 149.269531 Z M 141.507812 146.449219 " fillOpacity="1" fillRule="evenodd"/></g><path fill="#a6a6a6" d="M 135.738281 150.082031 L 132.472656 150.082031 L 132.472656 153.335938 L 135.738281 153.335938 Z M 135.738281 150.082031 " fillOpacity="1" fillRule="evenodd"/><path fill="#a6a6a6" d="M 145.601562 160.941406 L 142.78125 160.941406 L 142.78125 163.753906 L 145.601562 163.753906 Z M 145.601562 160.941406 " fillOpacity="1" fillRule="evenodd"/><path fill="#a6a6a6" d="M 132.402344 157.90625 L 130.265625 157.90625 L 130.265625 160.042969 L 132.402344 160.042969 Z M 132.402344 157.90625 " fillOpacity="1" fillRule="evenodd"/><path fill="#a6a6a6" d="M 141.753906 167.175781 L 136.394531 167.175781 L 136.394531 172.53125 L 141.753906 172.53125 Z M 141.753906 167.175781 " fillOpacity="1" fillRule="evenodd"/><path fill="#d1212e" d="M 105.976562 212.40625 L 108.359375 212.40625 L 108.359375 214.5625 C 109.203125 215 110.164062 215.25 111.179688 215.25 C 114.574219 215.25 117.363281 212.460938 117.363281 209.066406 L 117.363281 165.925781 C 117.363281 162.527344 114.574219 159.742188 111.179688 159.742188 C 107.921875 159.742188 105.234375 162.292969 105.007812 165.488281 C 104.273438 165.238281 103.484375 165.097656 102.671875 165.097656 C 98.738281 165.097656 95.542969 168.292969 95.542969 172.21875 C 95.542969 172.941406 95.652344 173.625 95.847656 174.28125 C 92.03125 175.679688 89.296875 179.359375 89.296875 183.664062 C 89.296875 186.148438 90.203125 188.417969 91.703125 190.167969 C 90.949219 191.339844 90.523438 192.738281 90.523438 194.234375 C 90.523438 197.65625 92.78125 200.546875 95.894531 201.5 L 101.757812 201.5 L 101.757812 209.011719 L 99.394531 209.011719 C 101.863281 212.546875 104.945312 212.367188 105.976562 212.40625 Z M 106.398438 198.1875 L 110.484375 198.1875 L 110.484375 194.09375 L 106.398438 194.09375 Z M 98.441406 198.894531 L 102.535156 198.894531 L 102.535156 194.808594 L 98.441406 194.808594 Z M 104.765625 203.066406 L 107.359375 203.066406 L 107.359375 200.472656 L 104.765625 200.472656 Z M 108.6875 206.550781 L 111.289062 206.550781 L 111.289062 203.957031 L 108.6875 203.957031 Z M 103.382812 211.078125 L 105.984375 211.078125 L 105.984375 208.480469 L 103.382812 208.480469 Z M 103.382812 211.078125 " fillOpacity="1" fillRule="evenodd"/><g clipPath="url(#a8a47ae7fa)"><path fill="#d1212e" d="M 94.195312 216.738281 L 87.890625 216.738281 L 87.890625 223.035156 L 94.195312 223.035156 Z M 94.195312 216.738281 " fillOpacity="1" fillRule="evenodd"/></g><path fill="#d1212e" d="M 100.652344 214.03125 L 96.675781 214.03125 L 96.675781 218.007812 L 100.652344 218.007812 Z M 100.652344 214.03125 " fillOpacity="1" fillRule="evenodd"/><path fill="#d1212e" d="M 93.140625 204.316406 L 89.164062 204.316406 L 89.164062 208.289062 L 93.140625 208.289062 Z M 93.140625 204.316406 " fillOpacity="1" fillRule="evenodd"/><g clipPath="url(#0335560d98)"><path fill="#d1212e" d="M 98.378906 225.722656 L 95.558594 225.722656 L 95.558594 228.539062 L 98.378906 228.539062 Z M 98.378906 225.722656 " fillOpacity="1" fillRule="evenodd"/></g><path fill="#d1212e" d="M 104.601562 221.652344 L 101.339844 221.652344 L 101.339844 224.910156 L 104.601562 224.910156 Z M 104.601562 221.652344 " fillOpacity="1" fillRule="evenodd"/><path fill="#d1212e" d="M 94.289062 211.234375 L 91.476562 211.234375 L 91.476562 214.046875 L 94.289062 214.046875 Z M 94.289062 211.234375 " fillOpacity="1" fillRule="evenodd"/><path fill="#d1212e" d="M 106.8125 214.945312 L 104.671875 214.945312 L 104.671875 217.082031 L 106.8125 217.082031 Z M 106.8125 214.945312 " fillOpacity="1" fillRule="evenodd"/><path fill="#d1212e" d="M 100.675781 202.457031 L 95.324219 202.457031 L 95.324219 207.8125 L 100.675781 207.8125 Z M 100.675781 202.457031 " fillOpacity="1" fillRule="evenodd"/><g fill="#d1212e" fillOpacity="1"><g transform="translate(154.6, 199.473165)"><g><path d="M 10.546875 -12.578125 L 4.992188 -12.578125 C 4.320312 -12.578125 3.738281 -12.484375 3.265625 -12.316406 C 2.777344 -12.132812 2.382812 -11.84375 2.089844 -11.460938 C 1.785156 -11.082031 1.558594 -10.578125 1.417969 -9.964844 C 1.28125 -9.371094 1.222656 -8.636719 1.222656 -7.800781 L 1.222656 -4.777344 C 1.222656 -3.921875 1.28125 -3.191406 1.417969 -2.578125 C 1.558594 -1.984375 1.785156 -1.480469 2.089844 -1.082031 C 2.394531 -0.703125 2.792969 -0.410156 3.265625 -0.246094 C 3.738281 -0.078125 4.320312 0.015625 4.992188 0.015625 L 10.546875 0.015625 C 10.667969 0.015625 10.972656 -0.046875 10.972656 -0.519531 L 10.972656 -1.726562 C 10.972656 -2.199219 10.667969 -2.257812 10.546875 -2.257812 L 5.066406 -2.257812 C 4.746094 -2.257812 4.472656 -2.289062 4.273438 -2.367188 C 4.074219 -2.425781 3.9375 -2.535156 3.816406 -2.703125 C 3.695312 -2.855469 3.617188 -3.082031 3.554688 -3.371094 C 3.511719 -3.679688 3.480469 -4.058594 3.480469 -4.519531 L 3.480469 -8.074219 C 3.480469 -8.53125 3.511719 -8.914062 3.554688 -9.203125 C 3.617188 -9.492188 3.695312 -9.707031 3.816406 -9.875 C 3.9375 -10.042969 4.074219 -10.148438 4.273438 -10.210938 C 4.472656 -10.285156 4.746094 -10.316406 5.066406 -10.316406 L 10.546875 -10.316406 C 10.667969 -10.316406 10.972656 -10.378906 10.972656 -10.867188 L 10.972656 -12.042969 C 10.972656 -12.515625 10.667969 -12.578125 10.546875 -12.578125 Z M 10.546875 -12.578125 "/></g></g></g><g fill="#d1212e" fillOpacity="1"><g transform="translate(167.843995, 199.473165)"><g><path d="M 11.613281 -11.460938 C 11.308594 -11.84375 10.914062 -12.132812 10.425781 -12.316406 C 9.949219 -12.484375 9.371094 -12.578125 8.699219 -12.578125 L 4.976562 -12.578125 C 4.304688 -12.578125 3.738281 -12.484375 3.265625 -12.316406 C 2.777344 -12.132812 2.382812 -11.84375 2.074219 -11.460938 C 1.785156 -11.082031 1.558594 -10.578125 1.417969 -9.964844 C 1.28125 -9.371094 1.222656 -8.652344 1.222656 -7.800781 L 1.222656 -4.777344 C 1.222656 -3.921875 1.28125 -3.191406 1.417969 -2.59375 C 1.558594 -1.984375 1.785156 -1.480469 2.074219 -1.097656 C 2.382812 -0.703125 2.777344 -0.410156 3.265625 -0.246094 C 3.722656 -0.078125 4.304688 0.015625 4.976562 0.015625 L 8.699219 0.015625 C 9.371094 0.015625 9.949219 -0.078125 10.425781 -0.246094 C 10.914062 -0.410156 11.308594 -0.703125 11.613281 -1.082031 C 11.921875 -1.480469 12.132812 -1.984375 12.269531 -2.59375 C 12.394531 -3.191406 12.46875 -3.921875 12.46875 -4.777344 L 12.46875 -7.800781 C 12.46875 -8.636719 12.394531 -9.371094 12.269531 -9.964844 C 12.132812 -10.578125 11.921875 -11.082031 11.613281 -11.460938 Z M 10.195312 -8.058594 L 10.195312 -4.503906 C 10.195312 -4.058594 10.179688 -3.679688 10.117188 -3.371094 C 10.074219 -3.097656 9.980469 -2.855469 9.859375 -2.703125 C 9.753906 -2.535156 9.601562 -2.425781 9.402344 -2.367188 C 9.203125 -2.289062 8.945312 -2.257812 8.625 -2.257812 L 5.050781 -2.257812 C 4.730469 -2.257812 4.472656 -2.289062 4.273438 -2.367188 C 4.074219 -2.425781 3.921875 -2.535156 3.816406 -2.703125 C 3.695312 -2.855469 3.617188 -3.097656 3.554688 -3.371094 C 3.511719 -3.679688 3.480469 -4.058594 3.480469 -4.503906 L 3.480469 -8.058594 C 3.480469 -8.5 3.511719 -8.882812 3.554688 -9.1875 C 3.617188 -9.476562 3.695312 -9.707031 3.816406 -9.875 C 3.921875 -10.027344 4.074219 -10.132812 4.273438 -10.210938 C 4.472656 -10.273438 4.730469 -10.316406 5.050781 -10.316406 L 8.625 -10.316406 C 8.945312 -10.316406 9.203125 -10.273438 9.402344 -10.210938 C 9.601562 -10.132812 9.753906 -10.027344 9.859375 -9.875 C 9.980469 -9.707031 10.074219 -9.476562 10.117188 -9.1875 C 10.179688 -8.882812 10.195312 -8.5 10.195312 -8.058594 Z M 10.195312 -8.058594 "/></g></g></g><g fill="#d1212e" fillOpacity="1"><g transform="translate(182.583263, 199.473165)"><g><path d="M 11.628906 -8.929688 C 11.628906 -8.914062 11.628906 -8.898438 11.628906 -8.882812 C 11.628906 -8.867188 11.628906 -8.851562 11.628906 -8.835938 Z M 11.921875 -0.65625 L 9.25 -5.234375 C 9.996094 -5.328125 10.578125 -5.648438 10.957031 -6.167969 C 11.386719 -6.792969 11.613281 -7.691406 11.628906 -8.882812 C 11.613281 -10.074219 11.386719 -10.972656 10.957031 -11.597656 C 10.5 -12.253906 9.738281 -12.578125 8.699219 -12.578125 L 1.664062 -12.578125 C 1.527344 -12.578125 1.222656 -12.53125 1.222656 -12.042969 L 1.222656 -10.835938 C 1.222656 -10.363281 1.527344 -10.316406 1.664062 -10.316406 L 8.304688 -10.316406 C 8.699219 -10.316406 8.960938 -10.210938 9.113281 -9.980469 C 9.28125 -9.753906 9.355469 -9.386719 9.355469 -8.882812 C 9.355469 -8.378906 9.28125 -8.011719 9.113281 -7.785156 C 8.960938 -7.554688 8.699219 -7.449219 8.304688 -7.449219 L 1.664062 -7.449219 C 1.527344 -7.449219 1.222656 -7.402344 1.222656 -6.929688 L 1.222656 -0.519531 C 1.222656 -0.046875 1.527344 0.015625 1.664062 0.015625 L 3.050781 0.015625 C 3.191406 0.015625 3.480469 -0.046875 3.480469 -0.519531 L 3.480469 -5.1875 L 6.699219 -5.1875 L 9.460938 -0.289062 C 9.523438 -0.199219 9.570312 -0.121094 9.628906 -0.078125 C 9.707031 -0.015625 9.8125 0.015625 9.949219 0.015625 L 11.628906 0.015625 C 11.8125 0.015625 11.949219 -0.105469 11.980469 -0.289062 C 11.996094 -0.441406 11.980469 -0.566406 11.921875 -0.65625 Z M 11.921875 -0.65625 "/></g></g></g><g fill="#a6a6a6" fillOpacity="1"><g transform="translate(196.857809, 199.473165)"><g><path d="M 11.765625 -12.578125 L 1.664062 -12.578125 C 1.527344 -12.578125 1.222656 -12.53125 1.222656 -12.058594 L 1.222656 -10.867188 C 1.222656 -10.363281 1.527344 -10.316406 1.664062 -10.316406 L 5.585938 -10.316406 L 5.585938 -0.519531 C 5.585938 -0.046875 5.890625 0 6.011719 0 L 7.417969 0 C 7.554688 0 7.84375 -0.046875 7.84375 -0.519531 L 7.84375 -10.316406 L 11.765625 -10.316406 C 11.90625 -10.316406 12.210938 -10.363281 12.210938 -10.867188 L 12.210938 -12.058594 C 12.210938 -12.53125 11.90625 -12.578125 11.765625 -12.578125 Z M 11.765625 -12.578125 "/></g></g></g><g fill="#a6a6a6" fillOpacity="1"><g transform="translate(211.337698, 199.473165)"><g><path d="M 10.394531 -2.730469 L 5.019531 -2.730469 C 4.699219 -2.730469 4.441406 -2.777344 4.226562 -2.839844 C 4.03125 -2.914062 3.890625 -3.023438 3.769531 -3.175781 C 3.648438 -3.34375 3.554688 -3.570312 3.511719 -3.863281 C 3.496094 -3.9375 3.496094 -4.042969 3.480469 -4.121094 C 3.480469 -4.121094 3.496094 -5.21875 3.511719 -5.21875 L 10.332031 -5.21875 C 10.453125 -5.21875 10.761719 -5.28125 10.761719 -5.753906 L 10.761719 -6.960938 C 10.761719 -7.433594 10.453125 -7.480469 10.332031 -7.480469 L 2.457031 -7.464844 C 2.015625 -7.433594 1.632812 -7.203125 1.417969 -6.824219 C 1.34375 -6.699219 1.28125 -6.578125 1.25 -6.441406 L 1.222656 -4.519531 L 1.222656 -4.441406 C 1.234375 -3.722656 1.3125 -3.113281 1.417969 -2.609375 C 1.558594 -2 1.785156 -1.496094 2.074219 -1.113281 C 2.382812 -0.71875 2.777344 -0.441406 3.265625 -0.273438 C 3.738281 -0.0898438 4.304688 -0.015625 4.976562 -0.015625 L 10.394531 -0.015625 C 10.53125 -0.015625 10.835938 -0.0625 10.835938 -0.535156 L 10.835938 -2.214844 C 10.835938 -2.6875 10.53125 -2.730469 10.394531 -2.730469 Z M 10.410156 -12.605469 L 1.632812 -12.605469 C 1.511719 -12.605469 1.222656 -12.546875 1.222656 -12.058594 L 1.222656 -10.867188 C 1.222656 -10.394531 1.511719 -10.347656 1.632812 -10.347656 L 10.410156 -10.332031 C 10.53125 -10.332031 10.835938 -10.394531 10.835938 -10.867188 L 10.835938 -12.074219 C 10.835938 -12.546875 10.53125 -12.605469 10.410156 -12.605469 Z M 10.410156 -12.605469 "/></g></g></g><g fill="#a6a6a6" fillOpacity="1"><g transform="translate(224.444375, 199.473165)"><g><path d="M 8.425781 -6.515625 L 12.332031 -11.90625 C 12.421875 -12.011719 12.453125 -12.148438 12.4375 -12.285156 C 12.410156 -12.46875 12.285156 -12.578125 12.089844 -12.578125 L 10.410156 -12.578125 C 10.273438 -12.578125 10.164062 -12.546875 10.089844 -12.5 C 10.011719 -12.4375 9.9375 -12.363281 9.875 -12.269531 L 7.003906 -8.363281 L 4.304688 -12.269531 C 4.242188 -12.363281 4.167969 -12.4375 4.089844 -12.5 C 4.015625 -12.546875 3.890625 -12.578125 3.769531 -12.578125 L 2 -12.578125 C 1.800781 -12.578125 1.679688 -12.46875 1.664062 -12.285156 C 1.648438 -12.148438 1.679688 -12.011719 1.753906 -11.90625 L 5.539062 -6.609375 L 1.34375 -0.671875 C 1.25 -0.566406 1.222656 -0.441406 1.234375 -0.289062 C 1.265625 -0.105469 1.390625 0 1.570312 0 L 3.25 0 C 3.386719 0 3.496094 -0.015625 3.570312 -0.078125 C 3.648438 -0.121094 3.722656 -0.199219 3.785156 -0.304688 L 6.882812 -4.6875 L 9.964844 -0.320312 C 10.027344 -0.199219 10.105469 -0.121094 10.179688 -0.0625 C 10.273438 -0.015625 10.378906 0 10.5 0 L 12.269531 0 C 12.46875 0 12.589844 -0.105469 12.605469 -0.289062 C 12.636719 -0.441406 12.589844 -0.566406 12.515625 -0.671875 Z M 8.425781 -6.515625 "/></g></g></g><g fill="#a6a6a6" fillOpacity="1"><g transform="translate(239.336216, 199.473165)"><g><path d="M 11.765625 -12.578125 L 1.664062 -12.578125 C 1.527344 -12.578125 1.222656 -12.53125 1.222656 -12.058594 L 1.222656 -10.867188 C 1.222656 -10.363281 1.527344 -10.316406 1.664062 -10.316406 L 5.585938 -10.316406 L 5.585938 -0.519531 C 5.585938 -0.046875 5.890625 0 6.011719 0 L 7.417969 0 C 7.554688 0 7.84375 -0.046875 7.84375 -0.519531 L 7.84375 -10.316406 L 11.765625 -10.316406 C 11.90625 -10.316406 12.210938 -10.363281 12.210938 -10.867188 L 12.210938 -12.058594 C 12.210938 -12.53125 11.90625 -12.578125 11.765625 -12.578125 Z M 11.765625 -12.578125 "/></g></g></g><g fill="#a6a6a6" fillOpacity="1"><g transform="translate(153.588993, 181.526794)"><g><path d="M 9.402344 -11.15625 C 9.371094 -11.234375 9.339844 -11.324219 9.308594 -11.386719 C 9.066406 -12.179688 8.332031 -12.746094 7.492188 -12.746094 C 7.113281 -12.746094 6.746094 -12.636719 6.441406 -12.421875 C 6.347656 -12.378906 6.273438 -12.316406 6.210938 -12.269531 C 5.984375 -12.074219 5.753906 -11.707031 5.539062 -11.15625 L 1.28125 -0.578125 C 1.234375 -0.441406 1.222656 -0.304688 1.25 -0.214844 C 1.265625 -0.121094 1.34375 0.015625 1.585938 0.015625 L 3.265625 0.015625 C 3.464844 0.015625 3.617188 -0.105469 3.695312 -0.304688 L 4.5625 -2.488281 L 7.90625 -2.488281 C 8.074219 -2.488281 8.226562 -2.5625 8.304688 -2.703125 C 8.394531 -2.824219 8.410156 -2.992188 8.363281 -3.144531 L 7.8125 -4.503906 C 7.738281 -4.6875 7.570312 -4.808594 7.371094 -4.808594 L 5.480469 -4.808594 L 7.433594 -9.753906 C 7.449219 -9.785156 7.464844 -9.796875 7.464844 -9.796875 L 7.523438 -9.796875 C 7.523438 -9.796875 7.523438 -9.796875 7.539062 -9.769531 L 11.324219 -0.320312 C 11.402344 -0.105469 11.554688 0.015625 11.765625 0.015625 L 13.402344 0.015625 C 13.644531 0.015625 13.707031 -0.136719 13.734375 -0.214844 C 13.765625 -0.304688 13.75 -0.441406 13.691406 -0.578125 Z M 9.402344 -11.15625 "/></g></g></g><g fill="#a6a6a6" fillOpacity="1"><g transform="translate(169.625175, 181.526794)"><g><path d="M 11.765625 -12.578125 L 10.363281 -12.578125 C 10.226562 -12.578125 9.9375 -12.53125 9.9375 -12.058594 L 9.9375 -4.53125 C 9.9375 -4.074219 9.90625 -3.679688 9.859375 -3.386719 C 9.8125 -3.097656 9.722656 -2.871094 9.617188 -2.703125 C 9.492188 -2.550781 9.355469 -2.441406 9.15625 -2.367188 C 8.960938 -2.304688 8.683594 -2.257812 8.363281 -2.257812 L 5.066406 -2.257812 C 4.746094 -2.257812 4.472656 -2.304688 4.273438 -2.367188 C 4.074219 -2.441406 3.9375 -2.550781 3.816406 -2.703125 C 3.707031 -2.871094 3.617188 -3.097656 3.554688 -3.386719 C 3.511719 -3.679688 3.480469 -4.074219 3.480469 -4.53125 L 3.480469 -12.058594 C 3.480469 -12.53125 3.191406 -12.578125 3.050781 -12.578125 L 1.664062 -12.578125 C 1.527344 -12.578125 1.222656 -12.53125 1.222656 -12.058594 L 1.222656 -4.777344 C 1.222656 -3.921875 1.28125 -3.191406 1.417969 -2.59375 C 1.558594 -1.984375 1.785156 -1.480469 2.089844 -1.097656 C 2.382812 -0.703125 2.792969 -0.425781 3.265625 -0.246094 C 3.738281 -0.078125 4.320312 0 4.992188 0 L 8.425781 0 C 9.097656 0 9.675781 -0.078125 10.148438 -0.246094 C 10.636719 -0.425781 11.035156 -0.703125 11.339844 -1.097656 C 11.644531 -1.480469 11.859375 -1.984375 11.996094 -2.59375 C 12.132812 -3.191406 12.195312 -3.921875 12.195312 -4.777344 L 12.195312 -12.058594 C 12.195312 -12.53125 11.90625 -12.578125 11.765625 -12.578125 Z M 11.765625 -12.578125 "/></g></g></g><g fill="#a6a6a6" fillOpacity="1"><g transform="translate(184.089796, 181.526794)"><g><path d="M 11.765625 -12.578125 L 1.664062 -12.578125 C 1.527344 -12.578125 1.222656 -12.53125 1.222656 -12.058594 L 1.222656 -10.867188 C 1.222656 -10.363281 1.527344 -10.316406 1.664062 -10.316406 L 5.585938 -10.316406 L 5.585938 -0.519531 C 5.585938 -0.046875 5.890625 0 6.011719 0 L 7.417969 0 C 7.554688 0 7.84375 -0.046875 7.84375 -0.519531 L 7.84375 -10.316406 L 11.765625 -10.316406 C 11.90625 -10.316406 12.210938 -10.363281 12.210938 -10.867188 L 12.210938 -12.058594 C 12.210938 -12.53125 11.90625 -12.578125 11.765625 -12.578125 Z M 11.765625 -12.578125 "/></g></g></g><g fill="#a6a6a6" fillOpacity="1"><g transform="translate(198.569684, 181.526794)"><g><path d="M 11.613281 -11.460938 C 11.308594 -11.84375 10.914062 -12.132812 10.425781 -12.316406 C 9.949219 -12.484375 9.371094 -12.578125 8.699219 -12.578125 L 4.976562 -12.578125 C 4.304688 -12.578125 3.738281 -12.484375 3.265625 -12.316406 C 2.777344 -12.132812 2.382812 -11.84375 2.074219 -11.460938 C 1.785156 -11.082031 1.558594 -10.578125 1.417969 -9.964844 C 1.28125 -9.371094 1.222656 -8.652344 1.222656 -7.800781 L 1.222656 -4.777344 C 1.222656 -3.921875 1.28125 -3.191406 1.417969 -2.59375 C 1.558594 -1.984375 1.785156 -1.480469 2.074219 -1.097656 C 2.382812 -0.703125 2.777344 -0.410156 3.265625 -0.246094 C 3.722656 -0.078125 4.304688 0.015625 4.976562 0.015625 L 8.699219 0.015625 C 9.371094 0.015625 9.949219 -0.078125 10.425781 -0.246094 C 10.914062 -0.410156 11.308594 -0.703125 11.613281 -1.082031 C 11.921875 -1.480469 12.132812 -1.984375 12.269531 -2.59375 C 12.394531 -3.191406 12.46875 -3.921875 12.46875 -4.777344 L 12.46875 -7.800781 C 12.46875 -8.636719 12.394531 -9.371094 12.269531 -9.964844 C 12.132812 -10.578125 11.921875 -11.082031 11.613281 -11.460938 Z M 10.195312 -8.058594 L 10.195312 -4.503906 C 10.195312 -4.058594 10.179688 -3.679688 10.117188 -3.371094 C 10.074219 -3.097656 9.980469 -2.855469 9.859375 -2.703125 C 9.753906 -2.535156 9.601562 -2.425781 9.402344 -2.367188 C 9.203125 -2.289062 8.945312 -2.257812 8.625 -2.257812 L 5.050781 -2.257812 C 4.730469 -2.257812 4.472656 -2.289062 4.273438 -2.367188 C 4.074219 -2.425781 3.921875 -2.535156 3.816406 -2.703125 C 3.695312 -2.855469 3.617188 -3.097656 3.554688 -3.371094 C 3.511719 -3.679688 3.480469 -4.058594 3.480469 -4.503906 L 3.480469 -8.058594 C 3.480469 -8.5 3.511719 -8.882812 3.554688 -9.1875 C 3.617188 -9.476562 3.695312 -9.707031 3.816406 -9.875 C 3.921875 -10.027344 4.074219 -10.132812 4.273438 -10.210938 C 4.472656 -10.273438 4.730469 -10.316406 5.050781 -10.316406 L 8.625 -10.316406 C 8.945312 -10.316406 9.203125 -10.273438 9.402344 -10.210938 C 9.601562 -10.132812 9.753906 -10.027344 9.859375 -9.875 C 9.980469 -9.707031 10.074219 -9.476562 10.117188 -9.1875 C 10.179688 -8.882812 10.195312 -8.5 10.195312 -8.058594 Z M 10.195312 -8.058594 "/></g></g></g></svg>